<svg xmlns="http://www.w3.org/2000/svg" width="520" height="520" viewBox="0 0 520 520" fill="none">
  
  <path d="M388 92c58 32 108 84 116 152 9 74-28 148-88 192-62 46-148 58-216 30-66-28-116-92-122-164-6-72 38-142 102-184 36-24 80-36 124-34 30 1 58 8 84 22z" fill="#2F9655"></path>
  <path d="M430 138c40 44 58 108 40 168-20 66-80 116-148 126-40 6-82-2-116-22 60 22 132 12 188-24 54-34 88-94 90-158 1-32-8-64-26-92 12 10 22 22 30 36-8-14-18-26-30-36 12 8 22 18 30 36-8-14-18-26-30-36 22 14 42 32 58 54-20-30-46-56-78-74 32 18 58 44 78 74-16-22-36-40-58-54z" fill="#15452A" opacity="0.55"></path>
</svg>